# xmcd
#
# Track frame offsets: 
#        150
#        14117
#        30797
#        48987
#        70055
#        89342
#        104487
#        123975
#        139887
#        155770
#        169427
#        181520
#        193510
#        211970
#        227467
#        243320
#        257507
#
# Disc length: 3568 seconds
#
# Revision: 0
# Processed by: cddbd v1.5.1PL0 Copyright (c) Steve Scherf et al.
# Submitted via: ExactAudioCopy v0.95a5
#
DISCID=e10dee11
DTITLE=Various Artist - Patriotic Country 2
DYEAR=2005
DGENRE=Country
TTITLE0=If The World Had A Front Porch - Tracy Lawrence
TTITLE1=You Do Your Thing - Montgomery Gentry
TTITLE2=Have You Forgotten - Darryl Worley
TTITLE3=The Bumper Of My SUV - Chely Wright
TTITLE4=A Country Boy Can Survive - Hank Williams, Jr.
TTITLE5=Living In The Promiseland - Willie Nelson
TTITLE6=Somebody's Someone - Lonestar
TTITLE7=This Is God - Phil Vassar
TTITLE8=Sweet Southern Comfort - Buddy Jewell
TTITLE9=You've Got To Stand For Something - Aaron Tippin
TTITLE10=Okie From Muskogee - Merle Haggard
TTITLE11=American Made - Oak Ridge Boys
TTITLE12=Some Gave All - Billy Ray Cyrus
TTITLE13=Down Home - Alabama
TTITLE14=They Also Serve - John Conlee
TTITLE15=Ragged Old Flag - Johnny Cash
TTITLE16=America The Beautiful (Live) - Elvis Presley
EXTD=
EXTT0=
EXTT1=
EXTT2=
EXTT3=
EXTT4=
EXTT5=
EXTT6=
EXTT7=
EXTT8=
EXTT9=
EXTT10=
EXTT11=
EXTT12=
EXTT13=
EXTT14=
EXTT15=
EXTT16=
PLAYORDER=
